# xmcd
#
# Track frame offsets:
#	150
#	15825
#	32625
#	49481
#	65456
#	83669
#	97163
#	114566
#	130916
#	147791
#	163466
#	180266
#	197122
#	213097
#	231310
#	244804
#	262207
#	278557
#
# Disc length: 3939 seconds
#
# Revision: 1
# Processed by: cddbd v1.5.1PL2 Copyright (c) Steve Scherf et al.
# Submitted via: audiograbber 1.83.01
#
DISCID=020f6112
DTITLE=Pop hits Monthly Nashville - Phmn0208
DYEAR=2002
DGENRE=Karaoke
TTITLE0=Toby Keith - Courtesy Of The Red White And Blue
TTITLE1=Shedaisy - Mine All Mine
TTITLE2=Lee Ann Womack - Something Worth Leaving Behind
TTITLE3=Cyndi Thomson - I'm Gone
TTITLE4=Shannon Lawson - Goodbye On A Bad Day
TTITLE5=Phil Vassar - American Child
TTITLE6=Joe Nichols - Impossible
TTITLE7=Brad Martin - Before I Knew Better
TTITLE8=Hank Williams Jnr And Kid Rock - F Word (Live TV Version)
TTITLE9=Toby Keith - Courtesy Of The Red White And Blue (Vocal)
TTITLE10=Shedaisy - Mine All Mine (Vocal)
TTITLE11=Lee Ann Womack - Something Worth Leaving Behind (Vocal)
TTITLE12=Cyndi Thomson - I'm Gone (Vocal)
TTITLE13=Shannon Lawson - Goodbye On A Bad Day (Vocal)
TTITLE14=Phil Vassar - American Child (Vocal)
TTITLE15=Joe Nichols - Impossible (Vocal)
TTITLE16=Brad Martin - Before I Knew Better (Vocal)
TTITLE17=Hank Williams Jnr And Kid Rock - F Word (Live TV Version) (Vocal)
EXTD=
EXTT0=
EXTT1=
EXTT2=
EXTT3=
EXTT4=
EXTT5=
EXTT6=
EXTT7=
EXTT8=
EXTT9=
EXTT10=
EXTT11=
EXTT12=
EXTT13=
EXTT14=
EXTT15=
EXTT16=
EXTT17=
PLAYORDER=
